<?xml version="1.0" encoding="UTF-8"?>
<!--Generator: Apple Native CoreSVG 232.5-->
<!DOCTYPE svg
PUBLIC "-//W3C//DTD SVG 1.1//EN"
       "http://www.w3.org/Graphics/SVG/1.1/DTD/svg11.dtd">
<svg version="1.1" xmlns="http://www.w3.org/2000/svg" xmlns:xlink="http://www.w3.org/1999/xlink" width="3300" height="2200">
 <g id="Notes">
  <rect height="2200" id="artboard" style="fill:white;opacity:1" width="3300" x="0" y="0"/>
  <line style="fill:none;stroke:black;opacity:1;stroke-width:0.5;" x1="263" x2="3036" y1="292" y2="292"/>
  <text style="stroke:none;fill:black;font-family:sans-serif;font-size:13;font-weight:bold;" transform="matrix(1 0 0 1 263 322)">Weight/Scale Variations</text>
  <text style="stroke:none;fill:black;font-family:sans-serif;font-size:13;text-anchor:middle;" transform="matrix(1 0 0 1 559.711 322)">Ultralight</text>
  <text style="stroke:none;fill:black;font-family:sans-serif;font-size:13;text-anchor:middle;" transform="matrix(1 0 0 1 856.422 322)">Thin</text>
  <text style="stroke:none;fill:black;font-family:sans-serif;font-size:13;text-anchor:middle;" transform="matrix(1 0 0 1 1153.13 322)">Light</text>
  <text style="stroke:none;fill:black;font-family:sans-serif;font-size:13;text-anchor:middle;" transform="matrix(1 0 0 1 1449.84 322)">Regular</text>
  <text style="stroke:none;fill:black;font-family:sans-serif;font-size:13;text-anchor:middle;" transform="matrix(1 0 0 1 1746.56 322)">Medium</text>
  <text style="stroke:none;fill:black;font-family:sans-serif;font-size:13;text-anchor:middle;" transform="matrix(1 0 0 1 2043.27 322)">Semibold</text>
  <text style="stroke:none;fill:black;font-family:sans-serif;font-size:13;text-anchor:middle;" transform="matrix(1 0 0 1 2339.98 322)">Bold</text>
  <text style="stroke:none;fill:black;font-family:sans-serif;font-size:13;text-anchor:middle;" transform="matrix(1 0 0 1 2636.69 322)">Heavy</text>
  <text style="stroke:none;fill:black;font-family:sans-serif;font-size:13;text-anchor:middle;" transform="matrix(1 0 0 1 2933.4 322)">Black</text>
  <line style="fill:none;stroke:black;opacity:1;stroke-width:0.5;" x1="263" x2="3036" y1="1903" y2="1903"/>
  <g transform="matrix(0.2 0 0 0.2 263 1933)">
   <path d="m46.2402 4.15039c21.5332 0 39.4531-17.8711 39.4531-39.4043s-17.9688-39.4043-39.502-39.4043c-21.4844 0-39.3555 17.8711-39.3555 39.4043s17.9199 39.4043 39.4043 39.4043Zm0-7.42188c-17.7246 0-31.8848-14.209-31.8848-31.9824s14.1113-31.9824 31.8359-31.9824c17.7734 0 32.0312 14.209 32.0312 31.9824s-14.209 31.9824-31.9824 31.9824Zm-17.9688-31.9824c0 2.14844 1.51367 3.61328 3.75977 3.61328h10.498v10.5957c0 2.19727 1.46484 3.71094 3.61328 3.71094 2.24609 0 3.71094-1.51367 3.71094-3.71094v-10.5957h10.5957c2.19727 0 3.71094-1.46484 3.71094-3.61328 0-2.19727-1.51367-3.71094-3.71094-3.71094h-10.5957v-10.5469c0-2.24609-1.46484-3.75977-3.71094-3.75977-2.14844 0-3.61328 1.51367-3.61328 3.75977v10.5469h-10.498c-2.24609 0-3.75977 1.51367-3.75977 3.71094Z"/>
  </g>
  <g transform="matrix(0.2 0 0 0.2 281.506 1933)">
   <path d="m58.5449 14.5508c27.2461 0 49.8047-22.6074 49.8047-49.8047 0-27.2461-22.6074-49.8047-49.8535-49.8047-27.1973 0-49.7559 22.5586-49.7559 49.8047 0 27.1973 22.6074 49.8047 49.8047 49.8047Zm0-8.30078c-23.0469 0-41.4551-18.457-41.4551-41.5039s18.3594-41.5039 41.4062-41.5039 41.5527 18.457 41.5527 41.5039-18.457 41.5039-41.5039 41.5039Zm-22.6562-41.5039c0 2.39258 1.66016 4.00391 4.15039 4.00391h14.3555v14.4043c0 2.44141 1.66016 4.15039 4.05273 4.15039 2.44141 0 4.15039-1.66016 4.15039-4.15039v-14.4043h14.4043c2.44141 0 4.15039-1.61133 4.15039-4.00391 0-2.44141-1.70898-4.15039-4.15039-4.15039h-14.4043v-14.3555c0-2.49023-1.70898-4.19922-4.15039-4.19922-2.39258 0-4.05273 1.70898-4.05273 4.19922v14.3555h-14.3555c-2.49023 0-4.15039 1.70898-4.15039 4.15039Z"/>
  </g>
  <g transform="matrix(0.2 0 0 0.2 304.924 1933)">
   <path d="m74.8535 28.3203c34.8145 0 63.623-28.8086 63.623-63.5742 0-34.8145-28.8574-63.623-63.6719-63.623-34.7656 0-63.5254 28.8086-63.5254 63.623 0 34.7656 28.8086 63.5742 63.5742 63.5742Zm0-9.08203c-30.1758 0-54.4434-24.3164-54.4434-54.4922 0-30.2246 24.2188-54.4922 54.3945-54.4922 30.2246 0 54.541 24.2676 54.541 54.4922 0 30.1758-24.2676 54.4922-54.4922 54.4922Zm-28.8574-54.4922c0 2.58789 1.85547 4.39453 4.58984 4.39453h19.7266v19.7754c0 2.68555 1.85547 4.58984 4.44336 4.58984 2.68555 0 4.54102-1.85547 4.54102-4.58984v-19.7754h19.7754c2.68555 0 4.58984-1.80664 4.58984-4.39453 0-2.73438-1.85547-4.58984-4.58984-4.58984h-19.7754v-19.7266c0-2.73438-1.85547-4.63867-4.54102-4.63867-2.58789 0-4.44336 1.9043-4.44336 4.63867v19.7266h-19.7266c-2.73438 0-4.58984 1.85547-4.58984 4.58984Z"/>
  </g>
  <text style="stroke:none;fill:black;font-family:sans-serif;font-size:13;font-weight:bold;" transform="matrix(1 0 0 1 263 1953)">Design Variations</text>
  <text style="stroke:none;fill:black;font-family:sans-serif;font-size:13;" transform="matrix(1 0 0 1 263 1971)">Symbols are supported in up to nine weights and three scales.</text>
  <text style="stroke:none;fill:black;font-family:sans-serif;font-size:13;" transform="matrix(1 0 0 1 263 1989)">For optimal layout with text and other symbols, vertically align</text>
  <text style="stroke:none;fill:black;font-family:sans-serif;font-size:13;" transform="matrix(1 0 0 1 263 2007)">symbols with the adjacent text.</text>
  <line style="fill:none;stroke:#00AEEF;stroke-width:0.5;opacity:1.0;" x1="776" x2="776" y1="1919" y2="1933"/>
  <g transform="matrix(0.2 0 0 0.2 776 1933)">
   <path d="m16.5527 0.78125c2.58789 0 3.85742-0.976562 4.78516-3.71094l6.29883-17.2363h28.8086l6.29883 17.2363c0.927734 2.73438 2.19727 3.71094 4.73633 3.71094 2.58789 0 4.24805-1.5625 4.24805-4.00391 0-0.830078-0.146484-1.61133-0.537109-2.63672l-22.9004-60.9863c-1.12305-2.97852-3.125-4.49219-6.25-4.49219-3.02734 0-5.07812 1.46484-6.15234 4.44336l-22.9004 61.084c-0.390625 1.02539-0.537109 1.80664-0.537109 2.63672 0 2.44141 1.5625 3.95508 4.10156 3.95508Zm13.4766-28.3691 11.8652-32.8613h0.244141l11.8652 32.8613Z"/>
  </g>
  <line style="fill:none;stroke:#00AEEF;stroke-width:0.5;opacity:1.0;" x1="792.836" x2="792.836" y1="1919" y2="1933"/>
  <text style="stroke:none;fill:black;font-family:sans-serif;font-size:13;font-weight:bold;" transform="matrix(1 0 0 1 776 1953)">Margins</text>
  <text style="stroke:none;fill:black;font-family:sans-serif;font-size:13;" transform="matrix(1 0 0 1 776 1971)">Leading and trailing margins on the left and right side of each symbol</text>
  <text style="stroke:none;fill:black;font-family:sans-serif;font-size:13;" transform="matrix(1 0 0 1 776 1989)">can be adjusted by modifying the x-location of the margin guidelines.</text>
  <text style="stroke:none;fill:black;font-family:sans-serif;font-size:13;" transform="matrix(1 0 0 1 776 2007)">Modifications are automatically applied proportionally to all</text>
  <text style="stroke:none;fill:black;font-family:sans-serif;font-size:13;" transform="matrix(1 0 0 1 776 2025)">scales and weights.</text>
  <g transform="matrix(0.2 0 0 0.2 1289 1933)">
   <path d="m14.209 9.32617 8.49609 8.54492c4.29688 4.3457 9.22852 4.05273 13.8672-1.07422l53.4668-58.9355-4.83398-4.88281-53.0762 58.3984c-1.75781 2.00195-3.41797 2.49023-5.76172 0.146484l-5.85938-5.81055c-2.34375-2.29492-1.80664-4.00391 0.195312-5.81055l57.373-54.0039-4.88281-4.83398-57.959 54.4434c-4.93164 4.58984-5.32227 9.47266-1.02539 13.8184Zm32.0801-90.9668c-2.09961 2.05078-2.24609 4.93164-1.07422 6.88477 1.17188 1.80664 3.4668 2.97852 6.68945 2.14844 7.32422-1.70898 14.9414-2.00195 22.0703 2.68555l-2.92969 7.27539c-1.70898 4.15039-0.830078 7.08008 1.85547 9.81445l11.4746 11.5723c2.44141 2.44141 4.49219 2.53906 7.32422 2.05078l5.32227-0.976562 3.32031 3.36914-0.195312 2.7832c-0.195312 2.49023 0.439453 4.39453 2.88086 6.78711l3.80859 3.71094c2.39258 2.39258 5.46875 2.53906 7.8125 0.195312l14.5508-14.5996c2.34375-2.34375 2.24609-5.32227-0.146484-7.71484l-3.85742-3.80859c-2.39258-2.39258-4.24805-3.17383-6.64062-2.97852l-2.88086 0.244141-3.22266-3.17383 1.2207-5.61523c0.634766-2.83203-0.146484-5.0293-3.07617-7.95898l-10.9863-10.9375c-16.6992-16.6016-38.8672-16.2109-53.3203-1.75781Zm7.4707 1.85547c12.1582-8.88672 28.6133-7.37305 39.7461 3.75977l12.1582 12.0605c1.17188 1.17188 1.36719 2.09961 1.02539 3.80859l-1.61133 7.42188 7.51953 7.42188 4.93164-0.292969c1.26953-0.0488281 1.66016 0.0488281 2.63672 1.02539l2.88086 2.88086-12.207 12.207-2.88086-2.88086c-0.976562-0.976562-1.12305-1.36719-1.07422-2.68555l0.341797-4.88281-7.4707-7.42188-7.61719 1.26953c-1.61133 0.341797-2.34375 0.195312-3.56445-0.976562l-10.0098-10.0098c-1.26953-1.17188-1.41602-2.00195-0.634766-3.85742l4.39453-10.4492c-7.8125-7.27539-17.9688-10.4004-28.125-7.42188-0.78125 0.195312-1.07422-0.439453-0.439453-0.976562Z"/>
  </g>
  <text style="stroke:none;fill:black;font-family:sans-serif;font-size:13;font-weight:bold;" transform="matrix(1 0 0 1 1289 1953)">Exporting</text>
  <text style="stroke:none;fill:black;font-family:sans-serif;font-size:13;" transform="matrix(1 0 0 1 1289 1971)">Symbols should be outlined when exporting to ensure the</text>
  <text style="stroke:none;fill:black;font-family:sans-serif;font-size:13;" transform="matrix(1 0 0 1 1289 1989)">design is preserved when submitting to Xcode.</text>
  <text id="template-version" style="stroke:none;fill:black;font-family:sans-serif;font-size:13;text-anchor:end;" transform="matrix(1 0 0 1 3036 1933)">Template v.2.0</text>
  <text style="stroke:none;fill:black;font-family:sans-serif;font-size:13;text-anchor:end;" transform="matrix(1 0 0 1 3036 1951)">Requires Xcode 12 or greater</text>
  <text id="descriptive-name" style="stroke:none;fill:black;font-family:sans-serif;font-size:13;text-anchor:end;" transform="matrix(1 0 0 1 3036 1969)">Generated from figure.run</text>
  <text style="stroke:none;fill:black;font-family:sans-serif;font-size:13;text-anchor:end;" transform="matrix(1 0 0 1 3036 1987)">Typeset at 100.0 points</text>
  <text style="stroke:none;fill:black;font-family:sans-serif;font-size:13;" transform="matrix(1 0 0 1 263 726)">Small</text>
  <text style="stroke:none;fill:black;font-family:sans-serif;font-size:13;" transform="matrix(1 0 0 1 263 1156)">Medium</text>
  <text style="stroke:none;fill:black;font-family:sans-serif;font-size:13;" transform="matrix(1 0 0 1 263 1586)">Large</text>
 </g>
 <g id="Guides">
  <g id="H-reference" style="fill:#27AAE1;stroke:none;" transform="matrix(1 0 0 1 339 696)">
   <path d="M0.993654 0L3.63775 0L29.3281-67.1323L30.0303-67.1323L30.0303-70.459L28.1226-70.459ZM11.6885-24.4799L46.9815-24.4799L46.2315-26.7285L12.4385-26.7285ZM55.1196 0L57.7637 0L30.6382-70.459L29.4326-70.459L29.4326-67.1323Z"/>
  </g>
  <line id="Baseline-S" style="fill:none;stroke:#27AAE1;opacity:1;stroke-width:0.5;" x1="263" x2="3036" y1="696" y2="696"/>
  <line id="Capline-S" style="fill:none;stroke:#27AAE1;opacity:1;stroke-width:0.5;" x1="263" x2="3036" y1="625.541" y2="625.541"/>
  <g id="H-reference" style="fill:#27AAE1;stroke:none;" transform="matrix(1 0 0 1 339 1126)">
   <path d="M0.993654 0L3.63775 0L29.3281-67.1323L30.0303-67.1323L30.0303-70.459L28.1226-70.459ZM11.6885-24.4799L46.9815-24.4799L46.2315-26.7285L12.4385-26.7285ZM55.1196 0L57.7637 0L30.6382-70.459L29.4326-70.459L29.4326-67.1323Z"/>
  </g>
  <line id="Baseline-M" style="fill:none;stroke:#27AAE1;opacity:1;stroke-width:0.5;" x1="263" x2="3036" y1="1126" y2="1126"/>
  <line id="Capline-M" style="fill:none;stroke:#27AAE1;opacity:1;stroke-width:0.5;" x1="263" x2="3036" y1="1055.54" y2="1055.54"/>
  <g id="H-reference" style="fill:#27AAE1;stroke:none;" transform="matrix(1 0 0 1 339 1556)">
   <path d="M0.993654 0L3.63775 0L29.3281-67.1323L30.0303-67.1323L30.0303-70.459L28.1226-70.459ZM11.6885-24.4799L46.9815-24.4799L46.2315-26.7285L12.4385-26.7285ZM55.1196 0L57.7637 0L30.6382-70.459L29.4326-70.459L29.4326-67.1323Z"/>
  </g>
  <line id="Baseline-L" style="fill:none;stroke:#27AAE1;opacity:1;stroke-width:0.5;" x1="263" x2="3036" y1="1556" y2="1556"/>
  <line id="Capline-L" style="fill:none;stroke:#27AAE1;opacity:1;stroke-width:0.5;" x1="263" x2="3036" y1="1485.54" y2="1485.54"/>
  <line id="left-margin" style="fill:none;stroke:#00AEEF;stroke-width:0.5;opacity:1.0;" x1="1396.53" x2="1396.53" y1="1030.79" y2="1150.12"/>
  <line id="right-margin" style="fill:none;stroke:#00AEEF;stroke-width:0.5;opacity:1.0;" x1="1503.16" x2="1503.16" y1="1030.79" y2="1150.12"/>
 </g>
 <g id="Symbols">
  <g id="Black-L" transform="matrix(1 0 0 1 2860.76 1556)">
   <path d="M87.0433-78.9642C95.5902-78.9642 102.532-85.927 102.532-94.4519C102.532-102.999 95.5902-109.941 87.0433-109.941C78.5173-109.941 71.5556-102.999 71.5556-94.4519C71.5556-85.927 78.5173-78.9642 87.0433-78.9642ZM63.3932-20.7011L87.5601-7.08163L72.1638 6.10411C68.5425 9.20651 68.0733 13.7372 70.7835 16.7482C73.5752 19.8397 78.0487 19.9662 81.888 16.725L104.829-2.82744C108.462-5.90093 107.805-12.3337 103.53-15.1491L79.2045-31.0479L83.9237-47.5744C84.3931-49.2665 86.2512-49.5298 87.2691-47.9854L94.6077-37.2375C96.585-34.3625 100.277-33.401 103.415-34.8009L124.471-44.2061C128.686-46.1029 130.343-49.9526 128.446-53.8267C126.609-57.562 122.895-58.7582 118.722-56.9198L102.713-49.85L91.6488-65.1131C85.3401-73.7451 77.5707-77.0924 65.2448-76.2102L41.8226-74.5457C37.7449-74.2461 34.8114-71.489 34.2133-67.2336L31.0453-43.5494C30.4251-38.9151 32.8385-35.5235 37.1279-35.0642C41.3225-34.6841 44.1159-37.1791 44.7945-41.8134L47.4679-60.37L56.0965-61.0122C57.7406-61.1146 58.965-60.0556 58.476-58.3266L53.1015-39.3139C49.6791-27.2498 57.6178-23.9507 63.3932-20.7011ZM18.7178 36.5187C21.8313 39.2289 26.2023 39.0373 29.6836 35.6352L51.2001 14.338C53.2005 12.3375 53.6014 11.7614 54.7041 8.93591L62.8978-12.3367L59.6835-14.1223C54.5907-16.9502 50.8454-19.8133 48.2868-22.8812L40.9657 3.02853L18.7618 25.0364C15.0821 28.6357 15.3487 33.6244 18.7178 36.5187Z"/>
  </g>
  <g id="Heavy-L" transform="matrix(1 0 0 1 2565.04 1556)">
   <path d="M85.7069-78.4952C94.026-78.4952 100.754-85.2529 100.754-93.5362C100.754-101.855 94.026-108.583 85.7069-108.583C77.418-108.583 70.6659-101.855 70.6659-93.5362C70.6659-85.2529 77.418-78.4952 85.7069-78.4952ZM62.6122-21.14L86.7277-7.55042L71.3061 5.6507C67.7703 8.69515 67.4312 13.0157 69.9715 15.8475C72.5979 18.7598 76.8794 18.9756 80.6151 15.8061L103.229-3.47436C106.698-6.39676 106.087-12.5835 101.981-15.2804L77.8627-31.0622L82.5548-47.5087C83.0699-49.3613 85.1348-49.6383 86.2399-47.9792L93.4648-37.3902C95.3599-34.6431 98.8787-33.6949 101.897-35.054L122.659-44.3229C126.715-46.1376 128.294-49.8003 126.479-53.5101C124.715-57.0948 121.166-58.2271 117.17-56.457L101.209-49.4138L90.2032-64.615C84.0451-73.0369 76.4719-76.3395 64.3496-75.4661L41.2584-73.8243C37.3218-73.5384 34.5301-70.8861 33.9639-66.8044L30.8412-43.4418C30.2392-38.9994 32.534-35.7722 36.6133-35.3311C40.6391-34.9648 43.3002-37.3456 43.9468-41.788L46.6252-60.2695L55.3007-60.9073C57.0357-61.0235 58.4078-59.8872 57.8682-57.9967L52.5709-39.2378C49.2394-27.5338 56.9184-24.3488 62.6122-21.14ZM18.5899 35.3279C21.5379 37.8682 25.7032 37.7792 29.1084 34.4489L50.3165 13.4462C52.253 11.5097 52.6495 10.9793 53.734 8.20842L62.0153-13.2588L59.0801-14.8889C54.0788-17.671 50.4201-20.4563 47.9431-23.4741L40.5846 2.57017L18.6614 24.3292C15.081 27.8292 15.4275 32.5853 18.5899 35.3279Z"/>
  </g>
  <g id="Bold-L" transform="matrix(1 0 0 1 2269.62 1556)">
   <path d="M83.9952-77.8368C92.03-77.8368 98.4961-84.341 98.4961-92.3246C98.4961-100.359 92.03-106.826 83.9952-106.826C75.9983-106.826 69.5074-100.359 69.5074-92.3246C69.5074-84.341 75.9983-77.8368 83.9952-77.8368ZM61.5993-21.6632L85.6011-8.14176L70.186 5.05249C66.7726 8.00534 66.5576 12.0721 68.9053 14.7035C71.3467 17.4153 75.3975 17.7015 78.9877 14.6391L101.172-4.281C104.441-7.02636 103.884-12.9058 99.9854-15.4567L76.1581-31.0702L80.812-47.387C81.381-49.4244 83.6772-49.7169 84.8824-47.9268L91.9615-37.545C93.7566-34.9517 97.0677-34.0263 99.9402-35.3317L120.311-44.4241C124.167-46.1388 125.654-49.571 123.939-53.0809C122.267-56.4812 118.918-57.5365 115.137-55.851L99.2677-48.8535L88.3532-63.948C82.3796-72.1162 75.0448-75.35 63.1984-74.4918L40.5443-72.8807C36.7844-72.6102 34.1619-70.0886 33.6342-66.2146L30.5727-43.2813C29.9938-39.0696 32.1426-36.0423 35.9681-35.6242C39.7864-35.2733 42.2861-37.5158 42.8942-41.7274L45.5728-60.0795L54.2872-60.7096C56.1375-60.8412 57.6642-59.6052 57.0704-57.5447L51.8729-39.1232C48.6567-27.8649 56.0129-24.8183 61.5993-21.6632ZM18.436 33.8004C21.1991 36.1481 25.1182 36.1523 28.4087 32.929L49.2104 12.3174C51.07 10.4578 51.4589 9.98131 52.5203 7.27953L60.8944-14.3813L58.29-15.8267C53.3964-18.5549 49.8453-21.2479 47.4757-24.2042L40.0859 1.97177L18.5385 23.3936C15.0959 26.7558 15.505 31.2274 18.436 33.8004Z"/>
  </g>
  <g id="Semibold-L" transform="matrix(1 0 0 1 1973.8 1556)">
   <path d="M82.8151-77.3829C90.654-77.3829 96.9399-83.7122 96.9399-91.4893C96.9399-99.3282 90.654-105.614 82.8151-105.614C75.0195-105.614 68.7087-99.3282 68.7087-91.4893C68.7087-83.7122 75.0195-77.3829 82.8151-77.3829ZM60.901-22.0238L84.8244-8.54942L69.4138 4.64008C66.0849 7.5298 65.9554 11.4216 68.1703 13.9148C70.4841 16.4885 74.3758 16.8232 77.8657 13.8345L99.7544-4.8371C102.885-7.46041 102.365-13.1281 98.6098-15.5783L74.9831-31.0757L79.6105-47.3031C80.2167-49.468 82.6723-49.7711 83.9465-47.8907L90.9251-37.6516C92.6514-35.1644 95.8192-34.2548 98.5911-35.5232L118.692-44.4939C122.41-46.1397 123.834-49.413 122.188-52.7851C120.579-56.0581 117.368-57.0605 113.736-55.4332L97.9292-48.4672L87.0779-63.4882C81.2314-71.4815 74.0609-74.6679 62.4047-73.8202L40.052-72.2302C36.4139-71.9704 33.908-69.5387 33.4068-65.808L30.3877-43.1706C29.8246-39.118 31.8727-36.2285 35.5233-35.8263C39.1986-35.4861 41.5869-37.6331 42.1685-41.6856L44.8473-59.9485L53.5886-60.5733C55.5182-60.7156 57.1515-59.4108 56.5205-57.2331L51.3917-39.0441C48.2549-28.0931 55.3887-25.1419 60.901-22.0238ZM18.33 32.7474C20.9655 34.9623 24.7149 35.0308 27.9264 31.8812L48.4479 11.5392C50.2544 9.73263 50.638 9.29329 51.6836 6.63916L60.1215-15.1551L57.7453-16.4732C52.926-19.1643 49.449-21.7936 47.1534-24.7075L39.7422 1.55924L18.4537 22.7487C15.1061 26.0158 15.5584 30.2913 18.33 32.7474Z"/>
  </g>
  <g id="Medium-L" transform="matrix(1 0 0 1 1677.76 1556)">
   <path d="M81.9203-77.0388C89.6106-77.0388 95.7599-83.2355 95.7599-90.8559C95.7599-98.5462 89.6106-104.696 81.9203-104.696C74.2774-104.696 68.1031-98.5462 68.1031-90.8559C68.1031-83.2355 74.2774-77.0388 81.9203-77.0388ZM60.3716-22.2973L84.2356-8.85852L68.8284 4.32738C65.5634 7.16922 65.4988 10.9284 67.613 13.3168C69.8301 15.7857 73.6012 16.1572 77.015 13.2244L98.6792-5.25876C101.705-7.78952 101.214-13.2965 97.5667-15.6704L74.0921-31.0799L78.6995-47.2395C79.3338-49.501 81.9104-49.8121 83.2369-47.8633L90.1393-37.7325C91.8133-35.3257 94.8726-34.428 97.5681-35.6684L117.464-44.5468C121.079-46.1404 122.453-49.2932 120.86-52.5607C119.299-55.7374 116.193-56.6995 112.673-55.1165L96.9143-48.1743L86.1108-63.1396C80.3608-71.0002 73.3149-74.1507 61.8029-73.311L39.6787-71.737C36.1329-71.4852 33.7155-69.1218 33.2345-65.4996L30.2473-43.0867C29.6963-39.1548 31.6681-36.3697 35.186-35.9796C38.7528-35.6474 41.0568-37.722 41.6183-41.654L44.2971-59.8491L53.0589-60.47C55.0487-60.6203 56.7627-59.2633 56.1035-56.9968L51.0269-38.9842C47.9502-28.2662 54.9153-25.3873 60.3716-22.2973ZM18.2496 31.9489C20.7883 34.0631 24.4091 34.1804 27.5607 31.0868L47.8697 10.9491C49.636 9.18278 50.0157 8.7716 51.0492 6.1536L59.5356-15.7418L57.3322-16.9634C52.5693-19.6263 49.1485-22.2074 46.9091-25.0891L39.4815 1.24645L18.3894 22.2596C15.1139 25.4547 15.5989 29.5815 18.2496 31.9489Z"/>
  </g>
  <g id="Regular-L" transform="matrix(1 0 0 1 1381.93 1556)">
   <path d="M80.7532-76.5898C88.2497-76.5898 94.2208-82.6137 94.2208-90.0298C94.2208-97.5263 88.2497-103.497 80.7532-103.497C73.3094-103.497 67.3132-97.5263 67.3132-90.0298C67.3132-82.6137 73.3094-76.5898 80.7532-76.5898ZM59.681-22.654L83.4674-9.2617L68.0647 3.91951C64.8832 6.6989 64.9032 10.285 66.886 12.5368C68.9769 14.869 72.5907 15.2885 75.9054 12.4287L97.2767-5.80875C100.167-8.2188 99.7119-13.5163 96.2062-15.7906L72.9299-31.0853L77.5113-47.1566C78.1823-49.544 80.9166-49.8657 82.3114-47.8276L89.1143-37.838C90.7201-35.5361 93.6378-34.654 96.2338-35.8577L115.864-44.6159C119.342-46.1413 120.653-49.1368 119.128-52.2681C117.63-55.319 114.66-56.2287 111.287-54.7033L95.5904-47.7923L84.8495-62.6849C79.2252-70.3724 72.3418-73.476 61.0179-72.6467L39.1918-71.0936C35.7665-70.8524 33.4645-68.5781 33.0096-65.0974L30.0643-42.9773C29.529-39.2026 31.4012-36.5539 34.7461-36.1794C38.1714-35.8577 40.3653-37.838 40.9006-41.6127L43.5796-59.7195L52.3679-60.3352C54.4362-60.4961 56.2557-59.0711 55.5596-56.6887L50.551-38.9061C47.5529-28.4919 54.298-25.7074 59.681-22.654ZM18.1447 30.9075C20.5573 32.8903 24.0102 33.0711 27.0837 30.0505L47.1155 10.1795C48.8294 8.46559 49.2038 8.09115 50.2216 5.52026L58.7713-16.5071L56.7935-17.6028C52.1041-20.229 48.7566-22.7471 46.5904-25.5869L39.1416 0.838449L18.3055 21.6217C15.124 24.7228 15.6517 28.6557 18.1447 30.9075Z"/>
  </g>
  <g id="Light-L" transform="matrix(1 0 0 1 1086.44 1556)">
   <path d="M79.2073-75.6356C86.4938-75.6356 92.3122-81.4877 92.3122-88.6938C92.3122-95.9804 86.4938-101.799 79.2073-101.799C71.9544-101.799 66.149-95.9804 66.149-88.6938C66.149-81.4877 71.9544-75.6356 79.2073-75.6356ZM58.6886-22.883L82.0742-9.73884L66.9196 3.27061C63.9289 5.85915 63.7962 9.31169 65.76 11.5635C67.8509 13.8956 71.3502 14.1052 74.4549 11.4363L95.3682-6.40039C98.1437-8.75318 97.7079-13.8217 94.3358-16.0006L71.4794-31.0281L76.0035-46.813C76.6936-49.2387 79.4279-49.5604 80.8418-47.5031L87.5111-37.7235C89.0597-35.4979 91.882-34.6731 94.3825-35.8196L113.573-44.4059C116.899-45.8741 118.172-48.717 116.704-51.7337C115.283-54.6701 112.427-55.5416 109.169-54.0735L93.7392-47.277L83.1891-61.9024C77.6793-69.4563 70.9295-72.4263 59.9492-71.6352L38.6001-70.1203C35.3084-69.879 33.0828-67.7001 32.647-64.315L29.778-42.691C29.2618-39.0309 31.0386-36.4966 34.2499-36.1413C37.5416-35.8196 39.6401-37.7235 40.1563-41.3837L42.7971-59.166L51.49-59.7627C53.6537-59.9235 55.3969-58.4031 54.7198-56.097L49.8067-38.6961C46.904-28.5873 53.42-25.8791 58.6886-22.883ZM18.0684 29.5142C20.481 31.478 23.8194 31.5061 26.6829 28.6764L46.2757 9.24434C47.9515 7.56858 48.3068 7.21322 49.3056 4.69959L57.817-17.156L55.9729-18.1754C51.3216-20.7825 48.0505-23.2624 45.9988-26.0641L38.6262 0.22772L18.2292 20.5911C15.2386 23.5013 15.5753 27.2625 18.0684 29.5142Z"/>
  </g>
  <g id="Thin-L" transform="matrix(1 0 0 1 791.345 1556)">
   <path d="M77.1627-74.3735C84.1716-74.3735 89.788-79.9984 89.788-86.9269C89.788-93.9358 84.1716-99.5523 77.1627-99.5523C70.1622-99.5523 64.6093-93.9358 64.6093-86.9269C64.6093-79.9984 70.1622-74.3735 77.1627-74.3735ZM57.376-23.1859L80.2316-10.3699L65.405 2.41239C62.6668 4.74851 62.3322 8.02436 64.2707 10.2761C66.3616 12.6083 69.7095 12.5403 72.5366 10.1237L92.844-7.18289C95.4681-9.45995 95.0575-14.2255 91.8621-16.2782L69.561-30.9523L74.0094-46.3587C74.7248-48.8348 77.459-49.1565 78.8982-47.074L85.3908-37.5721C86.8637-35.4474 89.5597-34.6983 91.9341-35.7691L110.544-44.1283C113.668-45.5207 114.891-48.1616 113.498-51.027C112.178-53.8119 109.474-54.6329 106.367-53.2405L91.2907-46.5954L80.993-60.8674C75.6347-68.2447 69.0616-71.038 58.5356-70.2974L37.8176-68.833C34.7026-68.5917 32.578-66.539 32.1674-63.28L29.3994-42.3124C28.9084-38.8037 30.559-36.4209 33.5936-36.0908C36.7086-35.7691 38.6809-37.5721 39.1718-41.0808L41.7621-58.434L50.3288-59.0054C52.6188-59.1662 54.261-57.5196 53.6092-55.3145L48.8222-38.4185C46.0458-28.7135 52.2589-26.1063 57.376-23.1859ZM17.9674 27.6716C20.38 29.6101 23.567 29.4363 26.1528 26.8589L45.1651 8.00749C46.7904 6.38222 47.1205 6.0521 48.0939 3.6142L56.5549-18.0143L54.8875-18.9326C50.2867-21.5145 47.1165-23.944 45.2163-26.6951L37.9447-0.580019L18.1282 19.228C15.39 21.8858 15.4744 25.4198 17.9674 27.6716Z"/>
  </g>
  <g id="Ultralight-L" transform="matrix(1 0 0 1 495.462 1556)">
   <path d="M76.1154-73.7271C82.9821-73.7271 88.4952-79.2356 88.4952-86.0219C88.4952-92.8886 82.9821-98.4016 76.1154-98.4016C69.2443-98.4016 63.8206-92.8886 63.8206-86.0219C63.8206-79.2356 69.2443-73.7271 76.1154-73.7271ZM56.7037-23.341L79.2878-10.6931L64.6293 1.97281C62.0204 4.17965 61.5824 7.36499 63.5079 9.61675C65.5989 11.9489 68.8691 11.7387 71.554 9.45142L91.5511-7.58368C94.0976-9.82196 93.7-14.4324 90.5951-16.4204L68.5784-30.9135L72.9881-46.1259C73.7163-48.6279 76.4506-48.9496 77.9027-46.8542L84.3048-37.4945C85.7389-35.4216 88.3703-34.7113 90.68-35.7432L108.993-43.9861C112.013-45.3397 113.21-47.8772 111.856-50.665C110.588-53.3723 107.961-54.1675 104.932-52.8138L90.0366-46.2464L79.8682-60.3374C74.5875-67.6241 68.1049-70.327 57.8116-69.6122L37.4168-68.1736C34.3923-67.9323 32.3194-65.9443 31.9218-62.75L29.2055-42.1184C28.7274-38.6873 30.3134-36.3821 33.2575-36.0649C36.282-35.7432 38.1896-37.4945 38.6676-40.9256L41.2321-58.0591L49.7341-58.6175C52.0888-58.7784 53.6792-57.0671 53.0403-54.9137L48.318-38.2762C45.6062-28.7782 51.6642-26.2227 56.7037-23.341ZM17.9157 26.7278C20.3283 28.6534 23.4377 28.3762 25.8813 25.9281L44.5962 7.37398C46.1956 5.77457 46.5128 5.45738 47.4734 3.05826L55.9085-18.4538L54.3315-19.3205C49.7566-21.8894 46.6382-24.2931 44.8155-27.0183L37.5956-0.993738L18.0765 18.5299C15.4676 21.0584 15.4227 24.476 17.9157 26.7278Z"/>
  </g>
  <g id="Black-M" transform="matrix(1 0 0 1 2876.43 1126)">
   <path d="M68.3752-69.3863C75.1641-69.3863 80.7061-74.9338 80.7061-81.7175C80.7061-88.5064 75.1641-94.0484 68.3752-94.0484C61.5918-94.0484 56.044-88.5064 56.044-81.7175C56.044-74.9338 61.5918-69.3863 68.3752-69.3863ZM49.6501-23.6275L68.3631-13.0839L56.4903-2.90486C53.6371-0.477357 53.1411 3.1952 55.3841 5.68198C57.6892 8.23107 61.3044 8.22396 64.3396 5.67706L82.3314-9.65044C85.2717-12.1537 84.7263-17.3178 81.2873-19.588L62.3198-31.9698L65.9914-44.8036C66.3183-45.9818 67.5802-46.1739 68.2965-45.0733L74.0616-36.6384C75.6563-34.3114 78.6534-33.5629 81.1728-34.6748L97.6795-42.0552C101.062-43.5876 102.407-46.7101 100.874-49.8373C99.3988-52.845 96.3963-53.8216 93.0251-52.3463L80.6173-46.8618L72.0216-58.7036C67.0201-65.5537 60.8502-68.1673 51.1724-67.4814L32.8065-66.1776C29.544-65.9336 27.1599-63.7205 26.6716-60.2873L24.1887-41.729C23.6952-37.9892 25.6539-35.2358 29.1395-34.8669C32.5162-34.5606 34.7812-36.5814 35.3318-40.3211L37.3936-54.7183L44.0254-55.2171C45.2338-55.2846 46.0451-54.5175 45.7125-53.3272L41.4952-38.4309C38.7784-28.8162 45.121-26.1724 49.6501-23.6275ZM14.6011 21.1915C17.1554 23.4345 20.703 23.1773 23.4371 20.5058L40.3124 3.81227C41.912 2.21262 42.2239 1.72952 43.0912-0.498668L49.3587-16.789L46.6467-18.2956C42.6276-20.5233 39.6619-22.8031 37.625-25.2179L31.9956-5.27821L14.6115 11.9291C11.7012 14.7771 11.8132 18.8189 14.6011 21.1915Z"/>
  </g>
  <g id="Heavy-M" transform="matrix(1 0 0 1 2580.58 1126)">
   <path d="M67.2114-69.0159C73.797-69.0159 79.1434-74.3787 79.1434-80.9456C79.1434-87.5313 73.797-92.8776 67.2114-92.8776C60.6422-92.8776 55.2817-87.5313 55.2817-80.9456C55.2817-74.3787 60.6422-69.0159 67.2114-69.0159ZM48.9782-24.0355L67.6779-13.4982L55.7575-3.28824C52.9702-0.899777 52.6155 2.57971 54.6943 4.89132C56.8377 7.26524 60.2758 7.36475 63.229 4.87036L80.9439-10.2283C83.734-12.5891 83.2316-17.5339 79.9453-19.697L61.1418-31.989L64.7923-44.771C65.1622-46.1026 66.6262-46.3082 67.4259-45.0972L73.0922-36.7983C74.6119-34.5893 77.448-33.8484 79.8603-34.9257L96.1195-42.1887C99.3599-43.6461 100.633-46.6 99.1753-49.577C97.7638-52.4482 94.9113-53.3658 91.7037-51.952L79.3183-46.4828L70.7616-58.2889C65.8967-64.9459 59.9064-67.5281 50.3959-66.8473L32.3095-65.5621C29.1727-65.3316 26.9201-63.2121 26.4613-59.9399L24.0156-41.6502C23.5381-38.0874 25.3897-35.4842 28.6823-35.1313C31.9063-34.8385 34.0507-36.7547 34.5718-40.3174L36.642-54.6711L43.3284-55.1673C44.6169-55.2483 45.5797-54.4145 45.1957-53.0593L41.0451-38.3758C38.4085-29.085 44.5183-26.5458 48.9782-24.0355ZM14.483 20.1559C16.8756 22.2347 20.2328 22.0918 22.9118 19.4728L39.5262 3.02673C41.0668 1.48609 41.376 1.04597 42.2274-1.13413L48.5841-17.6305L46.1326-18.9922C42.1994-21.1768 39.3113-23.3841 37.3436-25.7534L31.6705-5.66995L14.5204 11.3329C11.6896 14.1015 11.8973 17.9315 14.483 20.1559Z"/>
  </g>
  <g id="Bold-M" transform="matrix(1 0 0 1 2284.83 1126)">
   <path d="M65.9095-68.6016C72.2677-68.6016 77.3952-73.7577 77.3952-80.0822C77.3952-86.4404 72.2677-91.5679 65.9095-91.5679C59.5799-91.5679 54.4289-86.4404 54.4289-80.0822C54.4289-73.7577 59.5799-68.6016 65.9095-68.6016ZM48.2265-24.4918L66.9114-13.9616L54.9377-3.7171C52.2243-1.37231 52.0276 1.89119 53.9226 4.00685C55.8851 6.18481 59.1252 6.4036 61.9866 3.96796L79.3917-10.8746C82.0139-13.0762 81.5596-17.7756 78.444-19.8189L59.8241-32.0106L63.4509-44.7346C63.8689-46.2377 65.559-46.4584 66.452-45.124L72.0079-36.9771C73.4436-34.9001 76.0995-34.1678 78.3921-35.2064L94.3744-42.3382C97.4563-43.7116 98.648-46.4767 97.2745-49.2859C95.9348-52.0042 93.2502-52.8558 90.2256-51.5109L77.8651-46.0589L69.3521-57.8249C64.6401-64.266 58.8506-66.8131 49.5273-66.138L31.7536-64.8736C28.7574-64.6582 26.6519-62.6434 26.2261-59.5513L23.8219-41.5621C23.3624-38.1973 25.0942-35.762 28.1708-35.4271C31.224-35.1493 33.2336-36.9485 33.7217-40.3132L35.8012-54.6183L42.5486-55.1116C43.9269-55.2077 45.0591-54.2993 44.6177-52.7596L40.5416-38.3142C37.9947-29.3857 43.8441-26.9634 48.2265-24.4918ZM14.351 18.9975C16.5627 20.8925 19.7068 20.8775 22.3242 18.3173L38.6466 2.14798C40.1213 0.673351 40.4276 0.281317 41.261-1.84498L47.7175-18.5719L45.5574-19.7714C41.7204-21.9079 38.9191-24.0342 37.0288-26.3525L31.3069-6.10817L14.4185 10.666C11.6766 13.3456 11.9913 16.9389 14.351 18.9975Z"/>
  </g>
  <g id="Semibold-M" transform="matrix(1 0 0 1 1988.79 1126)">
   <path d="M65.012-68.316C71.2134-68.316 76.1901-73.3297 76.1901-79.4869C76.1901-85.6884 71.2134-90.665 65.012-90.665C58.8476-90.665 53.841-85.6884 53.841-79.4869C53.841-73.3297 58.8476-68.316 65.012-68.316ZM47.7083-24.8065L66.383-14.2811L54.3726-4.01276C51.71-1.69808 51.6222 1.41654 53.3906 3.3971C55.2284 5.43998 58.332 5.74099 61.1302 3.34585L78.3216-11.3203C80.8281-13.412 80.4069-17.9422 77.4091-19.9029L58.9157-32.0255L62.5262-44.7095C62.9773-46.3308 64.8233-46.5619 65.7806-45.1424L71.2603-37.1003C72.6382-35.1144 75.17-34.388 77.3799-35.3999L93.1714-42.4412C96.144-43.7567 97.2797-46.3918 95.9642-49.0852C94.6739-51.6982 92.1051-52.5042 89.2066-51.2068L76.8633-45.7667L68.3804-57.5051C63.7737-63.7972 58.1228-66.3201 48.9285-65.649L31.3703-64.399C28.4711-64.1939 26.467-62.2513 26.0639-59.2834L23.6885-41.5013C23.2413-38.2731 24.8905-35.9535 27.8182-35.631C30.7537-35.3636 32.6703-37.0822 33.1356-40.3104L35.2216-54.5819L42.0111-55.0733C43.4512-55.1797 44.7002-54.2199 44.2192-52.553L40.1946-38.2717C37.7094-29.593 43.3793-27.2514 47.7083-24.8065ZM14.26 18.1989C16.347 19.9673 19.3441 20.0404 21.9191 17.5206L38.0403 1.54218C39.4694 0.113057 39.7738-0.245831 40.5948-2.33504L47.1201-19.2208L45.1608-20.3085C41.3901-22.412 38.6487-24.4823 36.8118-26.7655L31.0562-6.41027L14.3483 10.2062C11.6676 12.8245 12.0562 16.2546 14.26 18.1989Z"/>
  </g>
  <g id="Medium-M" transform="matrix(1 0 0 1 1692.58 1126)">
   <path d="M64.3315-68.0994C70.414-68.0994 75.2763-73.0051 75.2763-79.0356C75.2763-85.1181 70.414-89.9804 64.3315-89.9804C58.2923-89.9804 53.3952-85.1181 53.3952-79.0356C53.3952-73.0051 58.2923-68.0994 64.3315-68.0994ZM47.3154-25.045L65.9823-14.5233L53.944-4.23693C51.3201-1.94509 51.3149 1.05663 52.9872 2.93477C54.7305 4.87521 57.7305 5.23857 60.4807 2.87414L77.5102-11.6581C79.929-13.6666 79.5329-18.0686 76.6243-19.9666L58.2269-32.0367L61.825-44.6905C62.3012-46.4015 64.2654-46.6404 65.2715-45.1564L70.6935-37.1938C72.0275-35.2768 74.4651-34.555 76.6124-35.5466L92.2592-42.5193C95.1489-43.7909 96.2423-46.3274 94.9706-48.933C93.7178-51.4661 91.2368-52.2377 88.4339-50.9763L76.1037-45.5451L67.6437-57.2626C63.1168-63.4418 57.5709-65.9464 48.4744-65.2782L31.0797-64.0391C28.254-63.8419 26.3267-61.9541 25.941-59.0803L23.5872-41.4552C23.1494-38.3306 24.736-36.0988 27.5508-35.7856C30.3971-35.5261 32.2431-37.1835 32.6912-40.3082L34.7821-54.5543L41.6035-55.0442C43.0904-55.1585 44.428-54.1597 43.917-52.3963L39.9314-38.2395C37.4931-29.7502 43.0269-27.4697 47.3154-25.045ZM14.191 17.5933C16.1834 19.2657 19.0692 19.4056 21.6119 16.9166L37.5805 1.08283C38.9752-0.311781 39.2781-0.645536 40.0897-2.70662L46.6672-19.7129L44.8602-20.7158C41.1397-22.7941 38.4436-24.8221 36.6473-27.0787L30.8662-6.63934L14.295 9.85754C11.6608 12.4294 12.1054 15.7358 14.191 17.5933Z"/>
  </g>
  <g id="Regular-M" transform="matrix(1 0 0 1 1396.53 1126)">
   <path d="M63.4438-67.8169C69.3713-67.8169 74.0843-72.5817 74.0843-78.4469C74.0843-84.3744 69.3713-89.0874 63.4438-89.0874C57.5681-89.0874 52.8138-84.3744 52.8138-78.4469C52.8138-72.5817 57.5681-67.8169 63.4438-67.8169ZM46.8029-25.3562L65.4597-14.8393L53.3851-4.52934C50.8115-2.26727 50.914 0.58719 52.4611 2.33172C54.081 4.13856 56.946 4.58324 59.6337 2.25887L76.4519-12.0989C78.7562-13.9987 78.3929-18.2334 75.6008-20.0498L57.3284-32.0515L60.9104-44.6656C61.4194-46.4936 63.5378-46.7428 64.6075-45.1746L69.9541-37.3157C71.2309-35.4888 73.5457-34.7728 75.6113-35.738L91.0694-42.6211C93.851-43.8356 94.8891-46.2434 93.6747-48.7346C92.4708-51.1634 90.1042-51.89 87.4261-50.6755L75.1129-45.256L66.6826-56.9462C62.26-62.9782 56.8511-65.4589 47.8822-64.7946L30.7007-63.5696C27.9708-63.3827 26.1439-61.5663 25.7806-58.8154L23.4552-41.3952C23.0296-38.4055 24.5345-36.2882 27.202-35.9872C29.9319-35.738 31.686-37.3157 32.1116-40.3053L34.2088-54.5183L41.0719-55.0062C42.6199-55.1308 44.0731-54.0812 43.5229-52.192L39.5881-38.1975C37.211-29.9552 42.5672-27.7544 46.8029-25.3562ZM14.101 16.8035C15.9701 18.3506 18.7105 18.5777 21.2112 16.1287L36.9809 0.483683C38.3305-0.865918 38.6314-1.16689 39.4309-3.19129L46.0764-20.3547L44.468-21.2471C40.8131-23.2926 38.1762-25.2652 36.4327-27.4871L30.6182-6.93812L14.2256 9.4028C11.652 11.9141 12.1695 15.059 14.101 16.8035Z"/>
  </g>
  <g id="Light-M" transform="matrix(1 0 0 1 1100.92 1126)">
   <path d="M62.0578-66.9613C67.7971-66.9613 72.3733-71.5721 72.3733-77.2491C72.3733-82.9884 67.7971-87.5645 62.0578-87.5645C56.3532-87.5645 51.77-82.9884 51.77-77.2491C51.77-71.5721 56.3532-66.9613 62.0578-66.9613ZM45.9131-25.5615L64.2106-15.267L52.3584-5.11111C49.956-3.02015 49.9216-0.285468 51.4515 1.45906C53.0715 3.2659 55.8338 3.52236 58.3332 1.3691L74.7408-12.6293C76.9424-14.4778 76.5963-18.5071 73.9239-20.238L56.028-32.0001L59.5586-44.3577C60.0847-46.2198 62.2031-46.469 63.2899-44.8838L68.5168-37.213C69.7422-35.4545 71.9715-34.7899 73.9516-35.7038L89.0161-42.4329C91.6608-43.596 92.6647-45.8669 91.5016-48.2554C90.3661-50.5817 88.1022-51.274 85.5268-50.1109L73.4531-44.794L65.194-56.2447C60.874-62.1569 55.5848-64.5178 46.924-63.8877L30.1702-62.697C27.5601-62.51 25.8016-60.7792 25.4555-58.1138L23.1985-41.1385C22.7901-38.2515 24.2094-36.2368 26.7572-35.953C29.3672-35.7038 31.0358-37.213 31.4442-40.1L33.5073-54.0221L40.2848-54.4929C41.9184-54.6175 43.3031-53.4823 42.77-51.6615L38.9208-38.0093C36.6292-30.0408 41.7801-27.9084 45.9131-25.5615ZM14.0325 15.5544C15.9017 17.0844 18.5394 17.1746 20.8519 14.8967L36.228-0.354753C37.5434-1.67013 37.8272-1.95399 38.6095-3.92706L45.2208-20.9365L43.7322-21.7604C40.1116-23.7888 37.5431-25.7272 35.9022-27.9149L30.1563-7.48567L14.1571 8.47881C11.7546 10.819 12.1011 13.8099 14.0325 15.5544Z"/>
  </g>
  <g id="Thin-M" transform="matrix(1 0 0 1 805.654 1126)">
   <path d="M60.2247-65.8298C65.7151-65.8298 70.1102-70.2369 70.1102-75.665C70.1102-81.1553 65.7151-85.5504 60.2247-85.5504C54.7464-85.5504 50.3896-81.1553 50.3896-75.665C50.3896-70.2369 54.7464-65.8298 60.2247-65.8298ZM44.7363-25.8331L62.5585-15.8328L51.0006-5.88055C48.8244-4.0159 48.609-1.43963 50.1163 0.304903C51.7363 2.11174 54.3628 2.11926 56.6133 0.192306L72.4778-13.3308C74.5436-15.1114 74.2201-18.8692 71.7061-20.4869L54.308-31.9322L57.7708-43.9503C58.3196-45.8577 60.4379-46.1069 61.5474-44.499L66.6159-37.0772C67.7734-35.4093 69.8895-34.8125 71.7564-35.6585L86.3004-42.184C88.7641-43.2792 89.7227-45.3691 88.6275-47.6218C87.5826-49.8122 85.4544-50.4593 83.0148-49.3641L71.2579-44.183L63.2251-55.3168C59.041-61.0706 53.9102-63.2731 45.6567-62.6883L29.4687-61.5428C27.017-61.3559 25.349-59.7382 25.0255-57.186L22.8591-40.799C22.4732-38.0479 23.7794-36.1689 26.1688-35.9077C28.6204-35.6585 30.1758-37.0772 30.5616-39.8284L32.5794-53.3658L39.2438-53.814C40.9905-53.9386 42.2847-52.6902 41.7742-50.96L38.0382-37.7604C35.8598-30.1539 40.7391-28.1121 44.7363-25.8331ZM13.942 13.9024C15.8111 15.4097 18.3131 15.3189 20.3767 13.2673L35.2322-1.46365C36.5024-2.73377 36.7636-2.995 37.5233-4.90018L44.0893-21.7059L42.7591-22.4393C39.1837-24.4451 36.7058-26.3383 35.2007-28.4807L29.5452-8.20985L14.0666 7.25676C11.8904 9.37063 12.0105 12.1578 13.942 13.9024Z"/>
  </g>
  <g id="Ultralight-M" transform="matrix(1 0 0 1 509.685 1126)">
   <path d="M59.2858-65.2502C64.6487-65.2502 68.9511-69.5531 68.9511-74.8536C68.9511-80.2164 64.6487-84.5188 59.2858-84.5188C53.9234-84.5188 49.6825-80.2164 49.6825-74.8536C49.6825-69.5531 53.9234-65.2502 59.2858-65.2502ZM44.1336-25.9722L61.7124-16.1226L50.3051-6.27466C48.2449-4.52592 47.9367-2.03078 49.4324-0.286252C51.0524 1.52058 53.6094 1.4006 55.7324-0.410441L71.3186-13.6902C73.3149-15.436 73.003-19.0547 70.5701-20.6144L53.4271-31.8975L56.8551-43.7417C57.4154-45.6723 59.5338-45.9215 60.6549-44.302L65.6422-37.0077C66.7649-35.3861 68.8231-34.8241 70.632-35.6353L84.9095-42.0565C87.2804-43.1169 88.2158-45.114 87.1554-47.2972C86.1568-49.4181 84.0983-50.042 81.7282-48.9816L70.1336-43.8701L62.2167-54.8416C58.1021-60.5142 53.0524-62.6355 45.0076-62.074L29.1093-60.9516C26.7388-60.7647 25.1172-59.205 24.8053-56.7107L22.6852-40.6252C22.311-37.9435 23.5592-36.1342 25.8674-35.8845C28.2379-35.6353 29.7353-37.0077 30.1096-39.6893L32.1042-53.0297L38.7106-53.4662C40.5153-53.5908 41.7631-52.2846 41.2642-50.6006L37.5861-37.6329C35.4657-30.2119 40.2059-28.2164 44.1336-25.9722ZM13.8956 13.0562C15.7648 14.5519 18.1972 14.3684 20.1333 12.4327L34.7222-2.03163C35.9692-3.27856 36.2188-3.5282 36.9669-5.3986L43.5097-22.1L42.2607-22.7871C38.7085-24.7813 36.2769-26.6512 34.8414-28.7704L29.2323-8.58077L14.0202 6.63083C11.96 8.62879 11.9642 11.3117 13.8956 13.0562Z"/>
  </g>
  <g id="Black-S" transform="matrix(1 0 0 1 2888.55 696)">
   <path d="M53.8574-62.0605C59.2285-62.0605 63.623-66.4551 63.623-71.8262C63.623-77.1973 59.2285-81.5918 53.8574-81.5918C48.4863-81.5918 44.0918-77.1973 44.0918-71.8262C44.0918-66.4551 48.4863-62.0605 53.8574-62.0605ZM39.0625-26.0254L53.7109-17.7734L44.4336-9.81445C42.1875-7.91016 41.748-4.98047 43.5547-2.97852C45.4102-0.927734 48.291-0.976562 50.6836-2.97852L64.8438-15.0391C67.1875-17.041 66.748-21.1426 64.0137-22.9492L49.1211-32.666L52.002-42.7246C52.2461-43.6035 53.1738-43.75 53.7109-42.9199L58.252-36.2793C59.5215-34.4238 61.9141-33.8379 63.916-34.7168L76.9043-40.5273C79.5898-41.748 80.6641-44.2383 79.4434-46.7285C78.2715-49.1211 75.8789-49.9023 73.1934-48.7305L63.4766-44.4336L56.7383-53.7109C52.7832-59.1309 47.9004-61.1816 40.2832-60.6445L25.8301-59.6191C23.2422-59.4238 21.3379-57.666 20.9473-54.9316L18.9941-40.332C18.6035-37.3535 20.166-35.1562 22.9492-34.8633C25.6348-34.6191 27.4414-36.2305 27.8809-39.209L29.4922-50.4883L34.668-50.8789C35.5957-50.9277 36.1816-50.3418 35.9375-49.4629L32.6172-37.7441C30.4688-30.127 35.498-28.0273 39.0625-26.0254ZM11.4746 9.22852C13.5254 11.0352 16.3574 10.791 18.5059 8.69141L31.7871-4.44336C33.0566-5.71289 33.3008-6.10352 33.9844-7.86133L38.8672-20.5566L36.6699-21.7773C33.4961-23.5352 31.1523-25.3418 29.541-27.2461L25.1465-11.6699L11.4746 1.85547C9.17969 4.10156 9.22852 7.32422 11.4746 9.22852Z"/>
  </g>
  <g id="Heavy-S" transform="matrix(1 0 0 1 2592.44 696)">
   <path d="M53.0392-61.8531C58.2605-61.8531 62.5052-66.1093 62.5052-71.3191C62.5052-76.5404 58.2605-80.7851 53.0392-80.7851C47.8294-80.7851 43.5732-76.5404 43.5732-71.3191C43.5732-66.1093 47.8294-61.8531 53.0392-61.8531ZM38.6015-26.3481L53.2845-18.0731L43.938-10.068C41.7265-8.17522 41.4254-5.39535 43.0937-3.54321C44.8109-1.64225 47.5534-1.57583 49.8999-3.55474L63.8757-15.4655C66.1042-17.3522 65.6993-21.2924 63.0802-23.0184L48.2798-32.6891L51.1491-42.7361C51.4279-43.7418 52.5285-43.8998 53.1347-42.9775L57.6066-36.4291C58.8185-34.6658 61.0843-34.0799 63.0056-34.9358L75.8325-40.6656C78.4143-41.8287 79.4309-44.1922 78.2679-46.5672C77.1421-48.856 74.8648-49.5912 72.306-48.4654L62.5777-44.1685L55.8509-53.4459C51.9995-58.716 47.255-60.7552 39.7416-60.2181L25.4728-59.2043C22.9771-59.0205 21.1765-57.3318 20.809-54.7242L18.8789-40.2975C18.4998-37.4572 19.9816-35.3752 22.615-35.0938C25.1853-34.8612 26.8998-36.3918 27.3162-39.232L28.939-50.5113L34.1724-50.902C35.1578-50.9623 35.882-50.3303 35.5918-49.3015L32.3176-37.7211C30.2267-30.3459 35.0832-28.327 38.6015-26.3481ZM11.3824 8.50247C13.2949 10.1708 15.9771 10.0419 18.1025 7.96536L31.2109-5.00806C32.4343-6.23149 32.6785-6.58754 33.3505-8.31078L38.314-21.202L36.3242-22.3075C33.2195-24.0307 30.9334-25.7797 29.3681-27.6495L24.9275-11.935L11.4055 1.46364C9.15664 3.66363 9.30919 6.72495 11.3824 8.50247Z"/>
  </g>
  <g id="Bold-S" transform="matrix(1 0 0 1 2296.4 696)">
   <path d="M52.124-61.6211C57.1777-61.6211 61.2549-65.7227 61.2549-70.752C61.2549-75.8057 57.1777-79.8828 52.124-79.8828C47.0947-79.8828 42.9932-75.8057 42.9932-70.752C42.9932-65.7227 47.0947-61.6211 52.124-61.6211ZM38.0859-26.709L52.8076-18.4082L43.3838-10.3516C41.2109-8.47168 41.0645-5.85938 42.5781-4.1748C44.1406-2.44141 46.7285-2.24609 49.0234-4.19922L62.793-15.9424C64.8926-17.7002 64.5264-21.46 62.0361-23.0957L47.3389-32.7148L50.1953-42.749C50.5127-43.8965 51.8066-44.0674 52.4902-43.042L56.8848-36.5967C58.0322-34.9365 60.1562-34.3506 61.9873-35.1807L74.6338-40.8203C77.0996-41.9189 78.0518-44.1406 76.9531-46.3867C75.8789-48.5596 73.7305-49.2432 71.3135-48.1689L61.5723-43.8721L54.8584-53.1494C51.123-58.252 46.5332-60.2783 39.1357-59.7412L25.0732-58.7402C22.6807-58.5693 20.9961-56.958 20.6543-54.4922L18.75-40.2588C18.3838-37.5732 19.7754-35.6201 22.2412-35.3516C24.6826-35.1318 26.2939-36.5723 26.6846-39.2578L28.3203-50.5371L33.6182-50.9277C34.668-51.001 35.5469-50.3174 35.2051-49.1211L31.9824-37.6953C29.9561-30.5908 34.6191-28.6621 38.0859-26.709ZM11.2793 7.69043C13.0371 9.2041 15.5518 9.2041 17.6514 7.15332L30.5664-5.63965C31.7383-6.81152 31.9824-7.12891 32.6416-8.81348L37.6953-21.9238L35.9375-22.9004C32.9102-24.585 30.6885-26.2695 29.1748-28.1006L24.6826-12.2314L11.3281 1.02539C9.13086 3.17383 9.39941 6.05469 11.2793 7.69043Z"/>
  </g>
  <g id="Semibold-S" transform="matrix(1 0 0 1 2000.15 696)">
   <path d="M51.4931-61.4611C56.4312-61.4611 60.3929-65.4561 60.3929-70.3609C60.3929-75.2991 56.4312-79.2607 51.4931-79.2607C46.5882-79.2607 42.5933-75.2991 42.5933-70.3609C42.5933-65.4561 46.5882-61.4611 51.4931-61.4611ZM37.7305-26.9578L52.4788-18.6393L43.0017-10.5471C40.8555-8.67607 40.8156-6.1793 42.2227-4.61025C43.6785-2.99238 46.1598-2.7082 48.4191-4.64355L62.0465-16.2712C64.0572-17.9401 63.7177-21.5755 61.3163-23.149L46.6901-32.7326L49.5377-42.7579C49.8817-44.0031 51.309-44.1829 52.0459-43.0864L56.3871-36.7122C57.4901-35.1231 59.5164-34.5372 61.2853-35.3495L73.8073-40.927C76.1932-41.9812 77.1009-44.1051 76.0467-46.2623C75.008-48.3552 72.9484-49.0032 70.6292-47.9646L60.8791-43.6677L54.1741-52.945C50.5187-57.932 46.0355-59.9495 38.7181-59.4124L24.7978-58.4203C22.4763-58.2583 20.8717-56.7003 20.5477-54.3322L18.6611-40.2321C18.3038-37.6532 19.6332-35.789 21.9835-35.5293C24.336-35.3185 25.8763-36.6967 26.2491-39.2756L27.8938-50.5549L33.236-50.9455C34.3303-51.0276 35.3158-50.3085 34.9385-48.9967L31.7514-37.6775C29.7694-30.7597 34.2992-28.8932 37.7305-26.9578ZM11.2082 7.13057C12.8594 8.5376 15.2585 8.62646 17.3403 6.59346L30.1221-6.0751C31.2584-7.21143 31.5025-7.50215 32.1528-9.16006L37.2687-22.4215L35.6709-23.3092C32.6969-24.9671 30.5196-26.6072 29.0415-28.4116L24.5138-12.4358L11.2748 0.723242C9.11309 2.83613 9.46162 5.59258 11.2082 7.13057Z"/>
  </g>
  <g id="Medium-S" transform="matrix(1 0 0 1 1703.79 696)">
   <path d="M51.0146-61.3398C55.8652-61.3398 59.7393-65.2539 59.7393-70.0645C59.7393-74.915 55.8652-78.7891 51.0146-78.7891C46.2041-78.7891 42.29-74.915 42.29-70.0645C42.29-65.2539 46.2041-61.3398 51.0146-61.3398ZM37.4609-27.1465L52.2295-18.8145L42.7119-10.6953C40.5859-8.83105 40.627-6.42188 41.9531-4.94043C43.3281-3.41016 45.7285-3.05859 47.9609-4.98047L61.4805-16.5205C63.4238-18.1221 63.1045-21.6631 60.7705-23.1895L46.1982-32.7461L49.0391-42.7646C49.4033-44.084 50.9316-44.2705 51.709-43.1201L56.0098-36.7998C57.0791-35.2646 59.0312-34.6787 60.7529-35.4775L73.1807-41.0078C75.5059-42.0283 76.3799-44.0781 75.3594-46.168C74.3477-48.2002 72.3555-48.8213 70.1104-47.8096L60.3535-43.5127L53.6553-52.79C50.0605-57.6895 45.6582-59.7002 38.4014-59.1631L24.5889-58.1777C22.3213-58.0225 20.7773-56.5049 20.4668-54.2109L18.5938-40.2119C18.2432-37.7139 19.5254-35.917 21.7881-35.6641C24.0732-35.46 25.5596-36.791 25.9189-39.2891L27.5703-50.5684L32.9463-50.959C34.0742-51.0479 35.1406-50.3018 34.7363-48.9023L31.5762-37.6641C29.6279-30.8877 34.0566-29.0684 37.4609-27.1465ZM11.1543 6.70605C12.7246 8.03223 15.0361 8.18848 17.1045 6.16895L29.7852-6.40527C30.8945-7.51465 31.1387-7.78516 31.7822-9.42285L36.9453-22.7988L35.4688-23.6191C32.5352-25.2568 30.3916-26.8633 28.9404-28.6475L24.3857-12.5908L11.2344 0.494141C9.09961 2.58008 9.50879 5.24219 11.1543 6.70605Z"/>
  </g>
  <g id="Regular-S" transform="matrix(1 0 0 1 1407.53 696)">
   <path d="M50.3906-61.1816C55.127-61.1816 58.8867-64.9902 58.8867-69.6777C58.8867-74.4141 55.127-78.1738 50.3906-78.1738C45.7031-78.1738 41.8945-74.4141 41.8945-69.6777C41.8945-64.9902 45.7031-61.1816 50.3906-61.1816ZM37.1094-27.3926L51.9043-19.043L42.334-10.8887C40.2344-9.0332 40.3809-6.73828 41.6016-5.37109C42.8711-3.95508 45.166-3.51562 47.3633-5.41992L60.7422-16.8457C62.5977-18.3594 62.3047-21.7773 60.0586-23.2422L45.5566-32.7637L48.3887-42.7734C48.7793-44.1895 50.4395-44.3848 51.2695-43.1641L55.5176-36.9141C56.543-35.4492 58.3984-34.8633 60.0586-35.6445L72.3633-41.1133C74.6094-42.0898 75.4395-44.043 74.4629-46.0449C73.4863-47.998 71.582-48.584 69.4336-47.6074L59.668-43.3105L52.9785-52.5879C49.4629-57.373 45.166-59.375 37.9883-58.8379L24.3164-57.8613C22.1191-57.7148 20.6543-56.25 20.3613-54.0527L18.5059-40.1855C18.1641-37.793 19.3848-36.084 21.5332-35.8398C23.7305-35.6445 25.1465-36.9141 25.4883-39.3066L27.1484-50.5859L32.5684-50.9766C33.7402-51.0742 34.9121-50.293 34.4727-48.7793L31.3477-37.6465C29.4434-31.0547 33.7402-29.2969 37.1094-27.3926ZM11.084 6.15234C12.5488 7.37305 14.7461 7.61719 16.7969 5.61523L29.3457-6.83594C30.4199-7.91016 30.6641-8.1543 31.2988-9.76562L36.5234-23.291L35.2051-24.0234C32.3242-25.6348 30.2246-27.1973 28.8086-28.9551L24.2188-12.793L11.1816 0.195312C9.08203 2.24609 9.57031 4.78516 11.084 6.15234Z"/>
  </g>
  <g id="Light-S" transform="matrix(1 0 0 1 1111.79 696)">
   <path d="M49.1646-60.4248C53.7344-60.4248 57.3731-64.0972 57.3731-68.6182C57.3731-73.188 53.7344-76.8267 49.1646-76.8267C44.6284-76.8267 40.9712-73.188 40.9712-68.6182C40.9712-64.0972 44.6284-60.4248 49.1646-60.4248ZM36.3223-27.5742L50.7993-19.4214L41.4258-11.4033C39.4775-9.69921 39.5029-7.51025 40.7085-6.14306C41.978-4.72704 44.1821-4.45409 46.2129-6.20703L59.2285-17.3149C60.9932-18.7832 60.7153-22.0195 58.5752-23.4087L44.4063-32.7183L47.1929-42.501C47.5986-43.9473 49.2588-44.1426 50.104-42.9067L54.2461-36.8232C55.2261-35.4189 57.0059-34.8784 58.5903-35.6143L70.5469-40.9468C72.6719-41.8779 73.4717-43.71 72.5405-45.6211C71.6245-47.4834 69.811-48.0391 67.7534-47.1079L58.1997-42.9019L51.6616-51.9673C48.2368-56.6465 44.0459-58.5425 37.1406-58.0357L23.8472-57.0894C21.7559-56.9429 20.3516-55.5537 20.0737-53.4321L18.2788-39.9585C17.9522-37.6567 19.0972-36.0386 21.1397-35.8096C23.231-35.6143 24.5713-36.8232 24.898-39.125L26.5278-50.147L31.8721-50.5225C33.1196-50.6201 34.231-49.7632 33.8066-48.3101L30.7573-37.48C28.9287-31.1304 33.044-29.4331 36.3223-27.5742ZM11.0234 5.04737C12.4883 6.25294 14.5947 6.37599 16.479 4.5254L28.6797-7.57763C29.7236-8.62158 29.9526-8.85058 30.5723-10.4165L35.7666-23.8057L34.5542-24.4775C31.7036-26.0737 29.6646-27.606 28.3394-29.3335L23.8101-13.2773L11.1211-0.622064C9.17285 1.27735 9.50977 3.68018 11.0234 5.04737Z"/>
  </g>
  <g id="Thin-S" transform="matrix(1 0 0 1 816.363 696)">
   <path d="M47.543-59.4238C51.8926-59.4238 55.3711-62.916 55.3711-67.2168C55.3711-71.5664 51.8926-75.0449 47.543-75.0449C43.2071-75.0449 39.75-71.5664 39.75-67.2168C39.75-62.916 43.2071-59.4238 47.543-59.4238ZM35.2813-27.8144L49.3379-19.9219L40.2246-12.084C38.4766-10.5801 38.3418-8.53124 39.5274-7.16405C40.7969-5.74803 42.8809-5.6953 44.6914-7.24803L57.2266-17.9355C58.8711-19.3437 58.6133-22.3398 56.6133-23.6289L42.8848-32.6582L45.6113-42.1406C46.0371-43.627 47.6973-43.8223 48.5625-42.5664L52.5645-36.7031C53.4844-35.3789 55.1641-34.8984 56.6485-35.5742L68.1446-40.7266C70.1094-41.5977 70.8692-43.2695 69.9981-45.0606C69.1621-46.8027 67.4688-47.3184 65.5313-46.4473L56.2578-42.3613L49.9199-51.1465C46.6153-55.6856 42.5645-57.4414 36.0195-56.9746L23.2266-56.0684C21.2754-55.9219 19.9512-54.6328 19.6934-52.6113L17.9785-39.6582C17.6719-37.4766 18.7168-35.9785 20.6191-35.7695C22.5703-35.5742 23.8106-36.7031 24.1172-38.8848L25.707-49.5664L30.9512-49.9219C32.2988-50.0195 33.3301-49.0625 32.9258-47.6895L29.9766-37.2598C28.2481-31.2305 32.1231-29.6133 35.2813-27.8144ZM10.9434 3.58596C12.4082 4.7715 14.3945 4.7344 16.0586 3.084L27.7988-8.55858C28.8027-9.56249 29.0117-9.77147 29.6113-11.2773L34.7656-24.4863L33.6934-25.0781C30.8828-26.6543 28.9238-28.1465 27.7188-29.834L23.2695-13.918L11.041-1.70311C9.29297-0.00388853 9.42969 2.21877 10.9434 3.58596Z"/>
  </g>
  <g id="Ultralight-S" transform="matrix(1 0 0 1 520.308 696)">
   <path d="M46.7124-58.9112C50.9493-58.9112 54.3457-62.3111 54.3457-66.499C54.3457-70.7359 50.9493-74.1324 46.7124-74.1324C42.479-74.1324 39.1245-70.7359 39.1245-66.499C39.1245-62.3111 42.479-58.9112 46.7124-58.9112ZM34.7481-27.9375L48.5894-20.1782L39.6094-12.4326C37.9639-11.0312 37.7471-9.05418 38.9224-7.68699C40.1919-6.27098 42.2144-6.33103 43.9121-7.78123L56.2012-18.2534C57.7842-19.6308 57.5367-22.5039 55.6084-23.7417L42.1055-32.6274L44.8013-41.9561C45.2373-43.4629 46.8975-43.6582 47.773-42.3921L51.7032-36.6416C52.5923-35.3584 54.2207-34.9087 55.6538-35.5537L66.9141-40.6138C68.7969-41.4541 69.5362-43.044 68.6958-44.7734C67.9009-46.4541 66.2691-46.9492 64.3931-46.1089L55.2632-42.0845L49.0279-50.7261C45.7847-55.1934 41.8057-56.8775 35.4453-56.4312L22.9087-55.5454C21.0293-55.3989 19.7461-54.1611 19.4985-52.1909L17.8247-39.5044C17.5283-37.3843 18.522-35.9478 20.3525-35.749C22.2319-35.5537 23.4209-36.6416 23.7173-38.7617L25.2866-49.2691L30.4795-49.6143C31.8784-49.7119 32.8687-48.7036 32.4746-47.3716L29.5767-37.147C27.8994-31.2817 31.6514-29.7056 34.7481-27.9375ZM10.9023 2.83743C12.3672 4.01272 14.292 3.89358 15.8433 2.34573L27.3477-9.06102C28.3311-10.0444 28.5298-10.2431 29.1192-11.7182L34.2529-24.8349L33.2525-25.3857C30.4624-26.9516 28.5444-28.4233 27.4009-30.0903L22.9927-14.2461L11-2.25682C9.35449-0.660133 9.38867 1.47024 10.9023 2.83743Z"/>
  </g>
 </g>
</svg>
